<?xml version="1.0" encoding="utf-8"?>
<!DOCTYPE svg PUBLIC "-//W3C//DTD SVG 1.0//EN" "http://www.w3.org/TR/2001/REC-SVG-20010904/DTD/svg10.dtd">
<svg version="1.0" xmlns="http://www.w3.org/2000/svg" width="388px" height="402px" viewBox="0 0 388 402" preserveAspectRatio="xMidYMid meet">
 <g fill="#ffd95e">
  <path d="M104.5 306.1 c-2.2 -1 -5.2 -3.1 -6.7 -4.7 -6.1 -6.5 -5.8 -1.1 -5.8 -108.1 0 -68 0.3 -99 1.1 -101.8 1.5 -5.5 8.3 -11.9 14.2 -13.3 6 -1.6 88.4 -1.6 99.4 -0.1 18.7 2.5 34.8 8.5 49.3 18.2 10.2 6.9 22.9 18.7 26.4 24.4 0.7 1.2 -5.3 7.3 -30.8 31.4 -14.6 13.8 -21.5 17.6 -27 15.1 -1.2 -0.5 -4.4 -2.9 -7.1 -5.2 -9.1 -7.9 -17.4 -10 -38.6 -10 -11.2 0 -14.1 0.3 -15.3 1.6 -1.4 1.3 -1.6 6.3 -1.6 38.9 l0 37.5 2.5 1.6 c2.1 1.4 4.9 1.6 19.3 1.2 12.2 -0.4 17.9 -1 21.1 -2.2 l4.4 -1.6 11.1 6.1 c13.3 7.4 18.2 8.4 21.9 4.6 1.4 -1.3 3.1 -4.3 3.8 -6.5 1.1 -3.7 1 -4.6 -1.5 -9.5 -1.9 -4 -4.1 -6.5 -8.5 -9.7 -5.5 -4 -5.9 -4.6 -6.4 -9.1 -0.3 -2.6 -1.2 -6.1 -2 -7.6 -1.5 -2.9 -7.2 -6.6 -11.8 -7.7 -5 -1.1 -6.8 -3.7 -9.3 -13.6 -1.4 -5.2 -2.8 -10.5 -3.2 -11.7 -0.6 -2.2 -0.5 -2.2 2.5 -1.2 1.8 0.6 5.1 2.9 7.4 5.1 8.9 8.4 15.4 9.6 25.2 4.7 5 -2.5 19.9 -16.3 40.7 -37.6 6.6 -6.6 12.8 -12.3 13.8 -12.6 2.6 -0.7 6 2 6 4.6 0 1.5 -4.3 6.5 -13.5 15.7 -11.1 11 -13.5 14 -13.3 16 0.2 1.8 1 2.6 2.7 2.8 1.8 0.3 4.8 -2.1 14.6 -11.7 6.7 -6.7 12.7 -12.1 13.4 -12.1 2.8 0 5.1 2.2 5.1 4.7 0 2 -2.8 5.5 -12.1 14.9 -9.9 10 -12 12.6 -11.4 14.3 1.3 4.1 4.7 2.4 15.5 -7.9 10.8 -10.2 13.9 -12.1 16.5 -10 3.2 2.6 1.7 5.8 -7 15 -7.5 7.8 -8.4 9.2 -7.5 11 1.5 2.9 4.5 2.5 8.3 -1.1 5.9 -5.7 7.3 -6.4 10.2 -4.5 1.4 0.9 2.5 2.4 2.5 3.2 0 0.9 -2.8 4.6 -6.2 8.4 -3.7 3.9 -7 8.6 -7.9 11.1 -1.5 4.3 -1.7 4.4 -6.9 4.9 -4.5 0.5 -5.7 1.1 -8.4 4.3 -2.8 3.4 -3.5 3.7 -8.3 3.7 -4.5 0 -5.4 0.4 -7.6 3 -1.4 1.6 -2.8 3.9 -3.2 5 -0.4 1.3 -1.5 2 -3.2 2 -4.1 0 -8.9 3.6 -10.7 8 -2.1 5.3 -2 6.5 0.6 11.1 l2.2 3.9 -3.1 3.3 c-6.6 6.9 -5.7 11.5 4.4 21.8 l7.4 7.6 -4.6 4.2 c-8.7 8.1 -27.5 18.9 -38 22.1 -19.5 5.8 -22.5 6 -74 6 -43.6 0 -47.3 -0.2 -51 -1.9z"/>
  <path d="M279 271.3 c-3.5 -2.5 -15 -14.5 -15 -15.8 0 -2.1 3.1 -5.5 5.1 -5.5 1.2 0 5.3 3.3 10 7.9 8.3 8.4 9.4 10.9 5.7 13.5 -2.8 2 -2.8 2 -5.8 -0.1z"/>
  <path d="M279.3 247.8 c-6.3 -6.2 -11.6 -12.3 -12 -13.6 -0.8 -3.3 2.6 -6.7 5.9 -5.9 1.3 0.4 7.4 5.7 13.6 12 11.3 11.5 13 14.5 10 17.5 -3 3 -6 1.3 -17.5 -10z"/>
  <path d="M299.3 241.8 c-7.7 -6.6 -18.3 -18.2 -18.3 -19.9 0 -1 1.1 -2.6 2.5 -3.5 2.3 -1.5 2.7 -1.5 5.7 0.4 5.3 3.3 19.8 18.7 19.8 21 0 1.9 -3.3 5.2 -5.2 5.2 -0.4 0 -2.4 -1.5 -4.5 -3.2z"/>
  <path d="M230.8 233.6 c-13.1 -6.9 -19.7 -10.8 -20.8 -12.1 -0.9 -1.1 -0.8 -3.9 0.4 -12.4 0.9 -6 1.6 -11.2 1.6 -11.4 0 -0.2 1.2 -0.2 2.8 0.1 4.3 0.7 7 3.9 7.7 9.1 1 7.2 1.3 7.6 5.6 9.5 2.2 1 5.8 3.6 8 5.9 3.1 3.2 3.9 4.9 3.9 7.7 0 3.6 -1.4 6 -3.6 6 -0.6 0 -3.1 -1.1 -5.6 -2.4z"/>
  <path d="M306 223.6 c-7.5 -5.1 -9.6 -11.1 -4.9 -13.7 2.5 -1.3 7.7 1.7 11.4 6.5 3.1 4.1 3.1 6 0.3 8 -2.8 2 -2.7 2 -6.8 -0.8z"/>
 </g>
</svg>